# xmcd
#
# Track frame offsets:
#	150
#	12358
#	25970
#	42109
#	58484
#	71666
#	86345
#	100922
#	115247
#	129155
#	141944
#	173570
#	188358
#	203171
#	214897
#	228873
#	241666
#	279084
#	295442
#	308145
#
# Disc length: 4349 seconds
#
# Revision: 0
# Processed by: cddbd v1.5.2PL0 Copyright (c) Steve Scherf et al.
# Submitted via: audiograbber 1.83.01
#
DISCID=1210fb14
DTITLE=L'Intégrale Jazz - L'Intégrale Jazz - CD4
DYEAR=2008
DGENRE=Jazz
TTITLE0=01 - Louis Armstrong - On when the saints go marching in 
TTITLE1=02 - Billite Holliday - My man 
TTITLE2=03 - Gloenn Miller - In the mood - 1939 - 
TTITLE3=04 - Scott Joplin - The entertainer 
TTITLE4=05 - Benny Goodman - The sheik of arabia 
TTITLE5=06 - Diango Reinhardt - Nuages
TTITLE6=07 - Ella Fitzgerald - Lady be good 
TTITLE7=08 - Sidney Bechet - Les oignons 
TTITLE8=09 - Stephane Grappelli - Sweet georgia brown 
TTITLE9=10 - Fred Astaire - Puttin on the ritz 
TTITLE10=11 - Magic Trio  - Misty
TTITLE11=12 - Charles Mingus - Stormy weather
TTITLE12=13 -  Art Tatum - Deep puple
TTITLE13=14 - Errol Garner - Moonglow 
TTITLE14=15 - Dizzy Gillepsie - Be bop 
TTITLE15=16 - Duke Ellington - Cotton club stomp 
TTITLE16=17 - Lester Young - A foggy bay in Lodon twon 
TTITLE17=18 - Lionel Hampton - Always
TTITLE18=19 - Count Basie - Jive at five 
TTITLE19=20 - Artie Shaw - Donkey serenade
EXTD=
EXTT0=
EXTT1=
EXTT2=
EXTT3=
EXTT4=
EXTT5=
EXTT6=
EXTT7=
EXTT8=
EXTT9=
EXTT10=
EXTT11=
EXTT12=
EXTT13=
EXTT14=
EXTT15=
EXTT16=
EXTT17=
EXTT18=
EXTT19=
PLAYORDER=
